# xmcd
#
# Track frame offsets: 
#        150
#        40063
#        92710
#        124725
#        141685
#        175460
#
# Disc length: 3144 seconds
#
# Revision: 1
# Processed by: cddbd v1.5.2PL0 Copyright (c) Steve Scherf et al.
# Submitted via: ExactAudioCopy v1.0b1
#
DISCID=550c4606
DTITLE=Machito - Live At North Sea '82
DYEAR=1900
DGENRE=Salsa
TTITLE0=Buenas Noches Che Che
TTITLE1=Tibiri Tabara
TTITLE2=Oye La Rumba
TTITLE3=No Seras Mio
TTITLE4=Dale Jamon
TTITLE5=Mambo Inn
EXTD=
EXTT0=
EXTT1=
EXTT2=
EXTT3=
EXTT4=
EXTT5=
PLAYORDER=
